# xmcd
#
# Track frame offsets: 
#        150
#        24640
#        36527
#        52387
#        70902
#        93607
#        101592
#        112362
#        123397
#        140175
#        155387
#        176490
#        187115
#        199100
#        212047
#        234482
#
# Disc length: 3314 seconds
#
# Revision: 0
# Processed by: cddbd v1.4PL0 Copyright (c) Steve Scherf et al.
# Submitted via: ExactAudioCopy v0.95a3
#
DISCID=000cf010
DTITLE=Лига блюза - Да здравствует ритм энд блюз!
DYEAR=1993
DGENRE=Blues
TTITLE0=Развяжи мне руки
TTITLE1=Ей нужен герой
TTITLE2=Лентяй
TTITLE3=Ваша дочь
TTITLE4=Ночной пловец
TTITLE5=Mercedes Benz
TTITLE6=True fine mama
TTITLE7=Parchman farm
TTITLE8=Pain in my heart
TTITLE9=Walking the dog
TTITLE10=Hoochie coochie man
TTITLE11=Midnight to six man
TTITLE12=Gotta gey away
TTITLE13=Johnny B. Goode
TTITLE14=Хозяева двора
TTITLE15=Politican
EXTD=
EXTT0=
EXTT1=
EXTT2=
EXTT3=
EXTT4=
EXTT5=
EXTT6=
EXTT7=
EXTT8=
EXTT9=
EXTT10=
EXTT11=
EXTT12=
EXTT13=
EXTT14=
EXTT15=
PLAYORDER=
